HIERARCHY
ROOT Hips
{
	OFFSET 0.00000 0.00000 0.00000
	CHANNELS 6 Xposition Yposition Zposition Zrotation Yrotation Xrotation 
	JOINT RightUpLegDummy
	{
		OFFSET 0 0 0
		CHANNELS 3 Zrotation Yrotation Xrotation
		JOINT RightUpLeg
		{
			OFFSET -3.52197 -3.41223 0.04002
			CHANNELS 3 Zrotation Yrotation Xrotation
			JOINT RightLeg
			{
				OFFSET 0.00006 -17.42390 1.60435
				CHANNELS 3 Zrotation Yrotation Xrotation
				JOINT RightFoot
				{
					OFFSET 0.06153 -16.50078 -1.63901
					CHANNELS 3 Zrotation Yrotation Xrotation
					JOINT RightToes
					{
						OFFSET 0.00298 -1.73825 3.34613
						CHANNELS 3 Zrotation Yrotation Xrotation
						End Site
						{
							OFFSET 0.00480 -0.05416 3.85043
						}
					}
				}
			}
		}
	}
	JOINT SpineDummy
	{
		OFFSET 0 0 0
		CHANNELS 3 Zrotation Yrotation Xrotation
		JOINT Spine
		{
			OFFSET 0.00000 4.68130 0.00000
			CHANNELS 3 Zrotation Yrotation Xrotation
			JOINT Spine1
			{
				OFFSET -0.00000 10.10138 0.05002
				CHANNELS 3 Zrotation Yrotation Xrotation
				JOINT HEadDummy
				{
					OFFSET 0 0 0
					CHANNELS 3 Zrotation Yrotation Xrotation
					JOINT Head
					{
						OFFSET -0.00000 3.43865 0.00438
						CHANNELS 3 Zrotation Yrotation Xrotation
						End Site
						{
							OFFSET -0.11417 5.02924 0.98962
						}
					}
				}
				JOINT LeftShoulder1Dummy
				{
					OFFSET 0 0 0
					CHANNELS 3 Zrotation Yrotation Xrotation
					JOINT LeftShoulder1
					{
						OFFSET 3.53937 -0.14262 -0.08662
						CHANNELS 3 Zrotation Yrotation Xrotation
						JOINT LeftArm
						{
							OFFSET 4.04833 -0.00133 0.12681
							CHANNELS 3 Zrotation Yrotation Xrotation
							JOINT LeftForeArm
							{
								OFFSET 10.33880 -0.01036 -0.55515
								CHANNELS 3 Zrotation Yrotation Xrotation
								JOINT LeftHand
								{
									OFFSET 8.69677 0.07543 0.40060
									CHANNELS 3 Zrotation Yrotation Xrotation
									End Site
									{
										OFFSET 5.28377 -0.21905 0.59205
									}
								}
							}
						}
					}
				}
				JOINT RightShoulderDummy
				{
					OFFSET 0 0 0
					CHANNELS 3 Zrotation Yrotation Xrotation
					JOINT RightShoulder
					{
						OFFSET -3.53937 -0.14262 -0.08660
						CHANNELS 3 Zrotation Yrotation Xrotation
						JOINT RightArm
						{
							OFFSET -4.04833 -0.00133 0.12683
							CHANNELS 3 Zrotation Yrotation Xrotation
							JOINT RightForeArm
							{
								OFFSET -10.37987 -0.01039 -0.55511
								CHANNELS 3 Zrotation Yrotation Xrotation
								JOINT RightHand
								{
									OFFSET -8.67398 0.07538 0.40058
									CHANNELS 3 Zrotation Yrotation Xrotation
									End Site
									{
										OFFSET -5.24810 -0.21916 0.59204
									}
								}
							}
						}
					}
				}
			}
		}
	}
	JOINT LeftUpLegDummy
	{
		OFFSET 0 0 0
		CHANNELS 3 Zrotation Yrotation Xrotation
		JOINT LeftUpLeg
		{
			OFFSET 3.52197 -3.41223 0.04002
			CHANNELS 3 Zrotation Yrotation Xrotation
			JOINT LeftLeg
			{
				OFFSET -0.00012 -17.42399 1.60337
				CHANNELS 3 Zrotation Yrotation Xrotation
				JOINT LeftFoot
				{
					OFFSET -0.09972 -16.50070 -1.63802
					CHANNELS 3 Zrotation Yrotation Xrotation
					JOINT LeftToes
					{
						OFFSET -0.01575 -1.73823 3.34611
						CHANNELS 3 Zrotation Yrotation Xrotation
						End Site
						{
							OFFSET 0.03150 -0.01868 3.85031
						}
					}
				}
			}
		}
	}
}
MOTION
Frames: 14
Frame Time: 0.033333
14.6559 39.3020 21.8876 -179.0220 28.6993 176.0580 0.0000 0.0000 0.0000 7.1342 -1.0468 3.6086 -0.2159 -4.1454 12.1718 -7.8858 -0.0705 -11.7342 0.0000 -0.0000 -0.0000 0.0000 0.0000 0.0000 3.3759 2.3351 6.5307 0.5031 2.3654 0.5001 -0.0000 0.0000 -0.0000 -2.7633 9.2744 -4.6579 -0.0000 0.0000 -0.0000 -34.1852 -2.7620 2.5199 -45.1708 -15.5829 -17.7024 -10.6613 4.2959 33.8386 13.8729 -4.4139 -1.1379 -0.0000 0.0000 -0.0000 35.2448 5.2676 3.6201 37.4918 10.4652 -14.4761 11.3191 1.5084 22.8775 -11.2502 2.1169 -0.7102 0.0000 0.0000 0.0000 -3.5545 -0.5352 -16.9517 -2.1898 -2.9113 5.7481 -5.7657 0.5102 -1.3936 0.0000 0.0000 -0.0000
15.1008 39.2608 21.3880 -178.3780 28.4659 177.0680 0.0000 0.0000 0.0000 8.0196 -0.8172 4.2924 -0.2066 -4.6508 11.4252 -7.8948 -0.1067 -12.2324 0.0000 -0.0000 -0.0000 0.0000 0.0000 0.0000 3.9245 2.2251 5.9976 0.6051 2.2122 0.4972 -0.0000 0.0000 -0.0000 -3.1085 9.4050 -5.0215 -0.0000 0.0000 -0.0000 -34.2655 -2.7635 2.5241 -44.6847 -15.9035 -18.2005 -10.4729 4.8283 33.7447 14.2615 -4.3485 -1.1637 -0.0000 0.0000 -0.0000 35.3130 5.2793 3.6311 37.6465 10.2165 -14.6660 11.3273 0.8450 22.8306 -11.0201 1.8777 -0.6743 0.0000 0.0000 0.0000 -3.3706 -1.4982 -17.6448 -2.3010 2.7626 2.8575 -8.2433 0.7408 -1.1710 0.0000 0.0000 -0.0000
15.5763 39.1821 20.8532 -177.8810 28.3707 177.9800 0.0000 0.0000 0.0000 8.7912 -0.7235 4.8579 -0.2381 -5.1150 11.0930 -8.1380 -0.1563 -12.8725 0.0000 -0.0000 -0.0000 0.0000 0.0000 0.0000 4.1290 2.2076 5.4097 0.9098 2.1073 0.5082 -0.0000 0.0000 -0.0000 -3.2884 9.5938 -5.3159 -0.0000 0.0000 -0.0000 -34.3521 -2.7569 2.5284 -44.2121 -15.9796 -18.7356 -10.3143 5.3952 33.5611 14.6597 -4.3838 -1.2016 -0.0000 0.0000 -0.0000 35.3951 5.2919 3.6437 37.5757 10.0396 -14.9874 11.2875 -0.1080 23.1874 -10.9960 1.5799 -0.6468 0.0000 0.0000 0.0000 -3.5671 -2.0856 -18.2113 -1.8584 9.2242 1.3700 -8.7988 0.7875 -1.2207 0.0000 0.0000 -0.0000
16.1084 39.0762 20.2563 -177.7810 28.7781 178.4160 0.0000 0.0000 0.0000 9.1245 -0.9382 5.6462 -0.1663 -4.8436 11.3167 -8.3743 -0.2268 -13.7431 0.0000 -0.0000 -0.0000 0.0000 0.0000 0.0000 3.8920 2.4188 4.9329 1.1761 2.2546 0.6312 -0.0000 0.0000 -0.0000 -3.1716 9.8248 -5.5917 -0.0000 0.0000 -0.0000 -34.2536 -2.7440 2.5170 -43.8683 -15.7903 -19.3047 -10.1460 5.4907 33.5127 14.6337 -4.1743 -1.1746 -0.0000 0.0000 -0.0000 35.5087 5.3082 3.6606 37.4488 9.9043 -15.6031 11.1096 -1.3192 24.0266 -11.2025 1.3795 -0.6414 0.0000 0.0000 0.0000 -3.9779 -2.3187 -18.2114 -1.2084 14.0550 1.3254 -7.8813 0.6737 -1.7390 0.0000 0.0000 -0.0000
16.6960 38.9768 19.5998 -177.9670 29.7229 178.5260 0.0000 0.0000 0.0000 9.0918 -1.3659 6.7606 0.0839 -3.6973 11.6744 -8.9674 -0.2990 -14.4737 0.0000 -0.0000 -0.0000 0.0000 0.0000 0.0000 3.4297 2.8690 4.3792 1.2554 2.6889 0.9784 -0.0000 0.0000 -0.0000 -2.8244 10.0237 -5.8955 -0.0000 0.0000 -0.0000 -34.0862 -2.7496 2.5077 -43.5114 -15.3706 -19.9949 -9.9163 5.4770 33.7874 14.3888 -3.7402 -1.1032 -0.0000 0.0000 -0.0000 35.6421 5.3281 3.6809 37.3827 9.7179 -16.4781 10.8157 -2.5296 24.8120 -11.4951 1.2083 -0.6429 0.0000 0.0000 0.0000 -4.2198 -2.3983 -17.6151 -0.5498 16.2511 2.1735 -6.6816 0.5404 -2.3335 0.0000 0.0000 -0.0000
17.3160 38.9326 18.9112 -178.2380 30.9142 178.7020 0.0000 0.0000 0.0000 8.8752 -1.8493 8.0234 0.3798 -2.2958 11.5957 -9.3201 -0.3233 -14.6455 0.0000 -0.0000 -0.0000 0.0000 0.0000 0.0000 2.9059 3.4162 3.5047 1.2071 3.2417 1.4700 -0.0000 0.0000 -0.0000 -2.4447 10.2102 -6.1767 -0.0000 0.0000 -0.0000 -34.0807 -2.7598 2.5062 -42.9151 -14.7321 -20.8607 -9.6151 5.4689 34.3874 14.4103 -3.4176 -1.0672 -0.0000 0.0000 -0.0000 35.7883 5.3505 3.7035 37.3606 9.4089 -17.3682 10.5096 -3.5294 25.2819 -11.5118 1.1233 -0.6361 0.0000 0.0000 0.0000 -4.2406 -2.2799 -16.8194 -0.0413 16.9305 2.9880 -5.7411 0.4803 -2.0060 0.0000 0.0000 -0.0000
17.9557 38.9483 18.2071 -178.6120 31.9605 179.0070 0.0000 0.0000 0.0000 8.4736 -2.4337 9.1403 0.5760 -0.9932 11.3467 -8.4471 -0.2700 -14.2778 0.0000 -0.0000 -0.0000 0.0000 0.0000 0.0000 2.2121 3.8558 2.4187 1.1352 3.6913 1.8331 -0.0000 0.0000 -0.0000 -2.0971 10.4295 -6.3701 -0.0000 0.0000 -0.0000 -34.2298 -2.7382 2.5065 -42.0865 -13.8596 -21.8347 -9.2844 5.4591 35.0695 14.6634 -3.2408 -1.0655 -0.0000 0.0000 -0.0000 35.9180 5.3693 3.7231 37.4284 8.9338 -18.0575 10.2640 -4.2317 25.6188 -11.2008 1.2468 -0.6295 0.0000 0.0000 0.0000 -4.2514 -2.1281 -16.2171 0.3027 17.5437 3.4617 -4.8586 0.4719 -0.2633 0.0000 0.0000 -0.0000
18.6130 38.9545 17.4842 -179.1810 32.5461 179.1740 0.0000 0.0000 0.0000 7.7979 -3.5299 9.8045 0.8369 0.7022 12.1155 -7.2018 -0.2018 -13.7501 0.0000 -0.0000 -0.0000 0.0000 0.0000 0.0000 1.2749 4.0498 1.4606 1.0293 3.9185 1.9237 -0.0000 0.0000 -0.0000 -1.6683 10.6643 -6.5931 -0.0000 0.0000 -0.0000 -34.3697 -2.7018 2.5077 -41.2174 -12.8803 -22.8330 -8.9271 5.4487 35.7721 14.7620 -2.9489 -1.0379 -0.0000 0.0000 -0.0000 35.9631 5.3748 3.7295 37.7462 8.2804 -18.5122 10.0895 -4.5264 25.7463 -10.9997 1.3843 -0.6297 0.0000 0.0000 0.0000 -4.5034 -2.0462 -16.0058 0.5600 17.7073 4.4549 -3.4914 0.3896 1.7918 0.0000 0.0000 -0.0000
19.2571 38.9367 16.7464 -179.7740 32.6057 179.0470 0.0000 0.0000 0.0000 6.7397 -6.0240 10.1863 1.5426 3.6065 14.0963 -6.8037 -0.1387 -12.9169 0.0000 -0.0000 -0.0000 0.0000 0.0000 0.0000 0.4415 4.0314 0.8754 0.7621 3.9753 1.8955 -0.0000 0.0000 -0.0000 -1.1037 10.8631 -7.0118 -0.0000 0.0000 -0.0000 -34.4317 -2.6994 2.5102 -40.4870 -12.1213 -23.8542 -8.4609 5.4325 36.7850 14.6592 -2.5084 -0.9778 -0.0000 0.0000 -0.0000 35.8943 5.3648 3.7191 38.2943 7.5070 -18.8052 9.9804 -4.3434 25.3344 -11.1833 1.2523 -0.6268 0.0000 0.0000 0.0000 -4.9497 -1.9556 -15.8091 0.6308 16.6406 6.2092 -1.2057 0.1342 2.6850 0.0000 0.0000 -0.0000
19.8436 38.9154 16.0049 179.9590 32.4014 178.7560 0.0000 0.0000 0.0000 5.1312 -10.1724 10.3620 3.0780 7.7618 17.2221 -4.9980 -0.0504 -11.5287 0.0000 -0.0000 -0.0000 0.0000 0.0000 0.0000 0.2506 3.9727 0.6947 0.2376 4.0200 1.9320 -0.0000 0.0000 -0.0000 -0.5310 10.9755 -7.4393 -0.0000 0.0000 -0.0000 -34.4224 -2.7271 2.5208 -40.0786 -11.7767 -24.8537 -7.8652 5.4088 38.1548 14.5820 -2.1120 -0.9254 -0.0000 0.0000 -0.0000 35.7552 5.3465 3.6988 38.7560 6.7322 -18.9648 9.9352 -3.8427 24.5876 -11.4340 1.0272 -0.6230 0.0000 0.0000 0.0000 -5.2963 -1.6704 -15.4778 0.7172 14.9964 8.7381 1.5085 -0.1825 1.8114 0.0000 0.0000 -0.0000
20.3489 38.9011 15.2805 -179.8730 32.2837 178.4780 0.0000 0.0000 0.0000 2.9585 -14.1011 10.0387 5.9736 11.9498 21.8449 2.4922 -0.0979 -9.2665 0.0000 -0.0000 -0.0000 0.0000 0.0000 0.0000 0.7755 4.0014 0.8992 -0.4093 4.1420 1.9005 -0.0000 0.0000 -0.0000 -0.1388 10.9786 -7.3886 -0.0000 0.0000 -0.0000 -34.3410 -2.7414 2.5214 -40.1818 -11.6009 -25.5935 -7.3402 5.3889 39.2644 14.5007 -1.8028 -0.8837 -0.0000 0.0000 -0.0000 35.5785 5.3237 3.6733 38.8448 6.0743 -18.9368 9.9539 -3.2902 24.1771 -11.3774 1.0972 -0.6261 0.0000 0.0000 0.0000 -5.3630 -1.0546 -15.0520 1.0248 13.8259 11.5951 3.6637 -0.3627 -0.0469 0.0000 0.0000 -0.0000
20.7869 38.8575 14.6093 -179.5310 32.3600 178.2360 0.0000 0.0000 0.0000 0.5857 -16.8133 8.8455 10.1329 15.7766 28.1356 15.4519 -0.7720 -5.9868 0.0000 -0.0000 -0.0000 0.0000 0.0000 0.0000 1.4162 4.0939 1.4876 -0.7954 4.2711 1.5457 -0.0000 0.0000 -0.0000 -0.0172 10.9489 -6.7129 -0.0000 0.0000 -0.0000 -34.2697 -2.7407 2.5167 -40.7553 -11.2223 -25.7777 -7.1821 5.3858 39.4615 14.2147 -1.5743 -0.8394 -0.0000 0.0000 -0.0000 35.3786 5.2974 3.6444 38.5477 5.6485 -18.6957 10.0362 -2.7572 24.2551 -11.1985 1.3621 -0.6397 0.0000 0.0000 0.0000 -5.2429 -0.2649 -14.6932 1.4543 13.1354 14.4564 4.9426 -0.3903 -2.0464 0.0000 0.0000 -0.0000
21.1927 38.7580 14.0213 -179.3280 32.4572 177.9320 0.0000 0.0000 0.0000 -1.1997 -17.3110 6.6650 13.8942 16.9890 35.0637 26.5192 -2.0342 -2.6696 0.0000 -0.0000 -0.0000 0.0000 0.0000 0.0000 1.5218 4.1404 2.3548 -0.6235 4.2778 0.9626 -0.0000 0.0000 -0.0000 -0.0957 11.0351 -5.8982 -0.0000 0.0000 -0.0000 -34.3437 -2.7484 2.5244 -41.4617 -10.7219 -25.3386 -7.4652 5.3955 38.9193 13.8045 -1.6263 -0.8202 -0.0000 0.0000 -0.0000 35.2432 5.2792 3.6248 37.9804 5.5846 -18.3609 10.1568 -2.1332 24.2549 -11.3200 1.3761 -0.6479 0.0000 0.0000 0.0000 -5.1450 0.4160 -14.4285 1.8071 12.4787 17.2209 5.7163 -0.3388 -4.0766 0.0000 0.0000 -0.0000
21.6039 38.6690 13.4946 -179.2770 32.3403 177.4950 0.0000 0.0000 0.0000 -2.0914 -16.0503 3.9355 14.4844 14.5166 40.7378 29.1085 -2.6131 -1.2862 0.0000 -0.0000 -0.0000 0.0000 0.0000 0.0000 1.1227 4.0395 3.2752 -0.0606 4.0961 0.5501 -0.0000 0.0000 -0.0000 -0.2003 11.2421 -5.4678 -0.0000 0.0000 -0.0000 -34.5051 -2.7382 2.5305 -42.0328 -10.5834 -24.4699 -7.9801 5.4016 38.4358 13.5518 -2.0841 -0.8551 -0.0000 0.0000 -0.0000 35.2703 5.2828 3.6287 37.2846 5.9160 -18.1274 10.2518 -1.3536 23.7497 -11.7690 1.1223 -0.6505 0.0000 0.0000 0.0000 -5.0975 0.8187 -13.8556 2.0610 11.8896 19.3805 6.1389 -0.2494 -6.0285 0.0000 0.0000 -0.0000
